<svg viewBox="0 0 1024 1024" height="1024" width="1024" xmlns:xlink="http://www.w3.org/1999/xlink" xmlns="http://www.w3.org/2000/svg">
  <defs>
    <clipPath id="clip-path">
      <rect style="isolation: isolate" fill="#fff" height="1024" width="1024" id="阅读资料"></rect>
    </clipPath>
    <linearGradient gradientUnits="objectBoundingBox" y2="0.457" x2="1" y1="0.418" id="linear-gradient">
      <stop stop-color="#c3d2ef" offset="0"></stop>
      <stop stop-color="#fff" offset="1"></stop>
    </linearGradient>
    <clipPath id="clip-阅读资料-2">
      <rect height="1024" width="1024"></rect>
    </clipPath>
  </defs>
  <g clip-path="url(#clip-阅读资料-2)" id="阅读资料-2">
    <!-- <rect fill="#fff" height="1024" width="1024"></rect> -->
    <g style="isolation: isolate" clip-path="url(#clip-path)" id="阅读资料-3">
      <!-- <rect style="isolation: isolate" fill="#fff" height="1024" width="1024" id="阅读资料-4"></rect> -->
      <path style="isolation: isolate" fill="#f2f6fe" transform="translate(45 266.438)" d="M11.3,80.291C49.133-45.948,201.64,14.434,241.366,14.434S820.235,18,844.827,119.68s132.42,158.76,69.993,233.681S842.935,472.879,772.941,503.2,729.43,631.64,502.424,608.45s-168.362-69.57-251.6-78.489S38.951,599.531,35.168,513.906s8.72-88.516,8.145-146.829S-26.537,206.532,11.3,80.291Z" id="路径_1166"></path>
      <path style="isolation: isolate" fill="#d1e6ff" transform="translate(815.964 135.615)" d="M17.425,37.925V23.576H3.075a3.075,3.075,0,0,1,0-6.151h14.35V3.075a3.075,3.075,0,1,1,6.15,0v14.35h14.35a3.075,3.075,0,0,1,0,6.151H23.575v14.35a3.075,3.075,0,1,1-6.15,0Z" id="联合_163"></path>
      <path style="isolation: isolate" fill="#e2efff" transform="translate(883.746 234.439)" d="M9.291,32A9.292,9.292,0,0,1,5.137,14.4Q5.1,13.914,5.1,13.42A13.244,13.244,0,0,1,30.5,7.978a7.048,7.048,0,0,1,3.177-.752,7.171,7.171,0,0,1,7.07,6.194A9.29,9.29,0,0,1,40.709,32Z" id="联合_164"></path>
      <path style="isolation: isolate" fill="#e2efff" transform="translate(712.255 194.588)" d="M6.779,23.35A6.779,6.779,0,0,1,6.766,9.792a5.239,5.239,0,0,1,5.168-4.52,5.158,5.158,0,0,1,2.322.549A9.683,9.683,0,0,1,32.819,9.792q0,.358-.025.711A6.78,6.78,0,0,1,29.768,23.35Z" id="联合_165"></path>
      <path style="isolation: isolate" fill="#fff" transform="translate(802 373)" d="M0,10.5A10.5,10.5,0,1,1,10.5,21,10.5,10.5,0,0,1,0,10.5Z" id="椭圆_379"></path>
      <g style="isolation: isolate" transform="translate(110.956 215.679)" id="组_6513">
        <path style="isolation: isolate" fill="#bcd5fb" d="M248.006,176.442,227.718,144H20A20,20,0,0,1,0,124V20A20,20,0,0,1,20,0H297a20,20,0,0,1,20,20V124a20,20,0,0,1-20,20H273.522l-18.661,32.321a4,4,0,0,1-6.855.122Z" id="联合_170"></path>
        <g style="isolation: isolate" transform="translate(17 21)" id="组_6495">
          <path style="isolation: isolate" fill="#fff" d="M0,0H144V10H0Z" id="矩形_1472"></path>
          <path style="isolation: isolate" fill="#fff" transform="translate(0 22)" d="M0,0H144V10H0Z" id="矩形_1473"></path>
          <path style="isolation: isolate" fill="#fff" transform="translate(0 44)" d="M0,0H76V10H0Z" id="矩形_1474"></path>
          <path style="isolation: isolate" fill="#458cfb" transform="translate(0 86)" d="M107,0a9,9,0,0,1,0,18H9A9,9,0,1,1,9,0Z" id="矩形_1475"></path>
        </g>
        <g style="isolation: isolate" transform="translate(191 21)" id="组_6501">
          <path style="isolation: isolate" fill="#458cfb" transform="translate(0 0)" d="M52,104A52.014,52.014,0,0,1,31.759,4.086,52.014,52.014,0,0,1,72.241,99.914,51.675,51.675,0,0,1,52,104Zm0-85A33,33,0,1,0,85,52,33.038,33.038,0,0,0,52,19Z" id="减去_40"></path>
          <path style="isolation: isolate" fill="#fbb245" transform="translate(52)" d="M0,104H0V85a32.777,32.777,0,0,0,23.323-9.677A32.777,32.777,0,0,0,33,52,33.037,33.037,0,0,0,0,19V0A51.686,51.686,0,0,1,20.241,4.086,51.844,51.844,0,0,1,36.77,15.231,51.814,51.814,0,0,1,47.914,31.759a52.177,52.177,0,0,1,0,40.482A51.814,51.814,0,0,1,36.77,88.77,51.844,51.844,0,0,1,20.241,99.914,51.688,51.688,0,0,1,0,104Z" id="减去_42"></path>
          <path style="isolation: isolate" fill="#c62bcb" transform="translate(52 60)" d="M0,44H0V25a32.775,32.775,0,0,0,23.324-9.677A32.941,32.941,0,0,0,32.025,0H51.392a51.61,51.61,0,0,1-3.478,12.241A51.8,51.8,0,0,1,36.77,28.769,51.837,51.837,0,0,1,20.241,39.914,51.676,51.676,0,0,1,0,44Z" id="减去_45"></path>
        </g>
      </g>
      <g style="isolation: isolate" transform="translate(836.462 531.266)" id="组_6514">
        <path style="isolation: isolate" fill="url(#linear-gradient)" transform="translate(1.778 112.671)" d="M66.786,0V89.723s-1.628,6.558-32,6.558S0,89.723,0,89.723V0Z" id="路径_1167"></path>
        <path style="isolation: isolate" fill="#b7bbc2" transform="translate(1.45 106.348)" d="M0,6.65C0,2.977,15.085,0,33.693,0S67.385,2.977,67.385,6.65,52.3,13.3,33.693,13.3,0,10.323,0,6.65Z" id="椭圆_359"></path>
        <path style="isolation: isolate" fill="#769be5" transform="translate(4.997 111.668)" d="M0,3.99C0,1.786,13.3,0,29.7,0s29.7,1.786,29.7,3.99-13.3,3.99-29.7,3.99S0,6.193,0,3.99Z" id="椭圆_360"></path>
        <g style="isolation: isolate" transform="translate(0 18.978)" id="组_6466">
          <path style="isolation: isolate" fill="#adbbb4" d="M47.977,72.715c-2.192-10.434-3.779-8.57-6.3-12.1s-4.032-17.393,0-18.148,9.58-9.074,6.3-13.36S37.894,26.587,36.13,19.026,39.406,2.893,33.861.625,20,2.641,18.233,7.431,9.159,12.471,9.159,15.5s5.292,8.066,4.789,9.327S8.907,26.839,7.9,34.151-.419,35.915,2.605,48.265s-.759,8.067-1.514,15.88-3.781,15.628,5.294,18.4,14.619.5,20.921,0S50.167,83.151,47.977,72.715Z" id="路径_1168"></path>
          <path style="isolation: isolate" stroke-width="0.6" stroke="#ababab" fill="none" transform="translate(20.842 7.174)" d="M6.721,0s-15.122,71.842,0,93.266" id="路径_1169"></path>
          <path style="isolation: isolate" stroke-width="0.6" stroke="#ababab" fill="none" transform="translate(20.203 15.924)" d="M11.932,0l-7.8,9.867L0,4.359" id="路径_1170"></path>
          <path style="isolation: isolate" stroke-width="0.6" stroke="#ababab" fill="none" transform="translate(13.778 32.214)" d="M23.407,0C14.689,2.754,8.59,12.964,8.59,12.964S4.133,6.083,0,2.408" id="路径_1171"></path>
          <path style="isolation: isolate" stroke-width="0.6" stroke="#ababab" fill="none" transform="translate(8.271 50.114)" d="M27.227,2.875C20.078,5.051,12.41,15.837,12.41,15.837S8.03,3.212,0,0" id="路径_1172"></path>
          <path style="isolation: isolate" stroke-width="0.6" stroke="#ababab" fill="none" transform="translate(9.764 71.339)" d="M20.423,0C15.949.46,11.61,8.463,11.61,8.463L0,4.017" id="路径_1173"></path>
        </g>
        <g style="isolation: isolate" transform="translate(14.818)" id="组_6467">
          <path style="isolation: isolate" fill="#cbd7d1" d="M1.181,86.456c2.605-12.407,4.5-10.189,7.492-14.385s4.8-20.679,0-21.577S-2.715,39.7,1.181,34.609s11.989-3,14.087-11.989-3.9-19.179,2.7-21.877,16.484,2.4,18.582,8.091,10.788,5.992,10.788,9.59-6.292,9.593-5.692,11.089,5.993,2.4,7.193,11.091,9.889,2.1,6.292,16.783.9,9.588,1.8,18.88,4.5,18.582-6.293,21.878-17.384.6-24.876,0S-1.423,98.863,1.181,86.456Z" id="路径_1168-2"></path>
          <path style="isolation: isolate" stroke-width="0.6" stroke="#707070" fill="none" transform="translate(25.45 8.529)" d="M0,0S17.983,85.414,0,110.888" id="路径_1169-2"></path>
          <path style="isolation: isolate" stroke-width="0.6" stroke="#707070" fill="none" transform="translate(20.014 18.933)" d="M0,0,9.276,11.731l4.91-6.549" id="路径_1170-2"></path>
          <path style="isolation: isolate" stroke-width="0.6" stroke="#707070" fill="none" transform="translate(14.013 38.304)" d="M0,0C10.369,3.272,17.618,15.411,17.618,15.411s5.3-8.182,10.212-12.548" id="路径_1171-2"></path>
          <path style="isolation: isolate" stroke-width="0.6" stroke="#707070" fill="none" transform="translate(16.016 59.583)" d="M0,3.419C8.5,6,17.618,18.829,17.618,18.829S22.825,3.821,32.374,0" id="路径_1172-2"></path>
          <path style="isolation: isolate" stroke-width="0.6" stroke="#707070" fill="none" transform="translate(22.334 84.82)" d="M0,0C5.319.548,10.475,10.061,10.475,10.061L24.281,4.775" id="路径_1173-2"></path>
        </g>
      </g>
      <g style="isolation: isolate" transform="translate(236.548 156.263)" id="组_6520">
        <g style="isolation: isolate" id="组_6484">
          <path style="isolation: isolate" fill="#458cfb" d="M275.929,0a24,24,0,0,1,24,24V559.955a24,24,0,0,1-24,24H24a24,24,0,0,1-24-24V24A24,24,0,0,1,24,0Z" id="矩形_1402"></path>
          <path style="isolation: isolate" fill="#fff" transform="translate(8.887 8.322)" d="M261.89,0a20,20,0,0,1,20,20V547.311a20,20,0,0,1-20,20H20a20,20,0,0,1-20-20V20A20,20,0,0,1,20,0Z" id="矩形_1404"></path>
          <path style="isolation: isolate" fill="#458cfb" transform="translate(104.915 1.737)" d="M90,0V15A10,10,0,0,1,80,25H10A10,10,0,0,1,0,15V0Z" id="矩形_1535"></path>
        </g>
        <g style="isolation: isolate" transform="translate(24.138 50)" id="组_6516">
          <g style="isolation: isolate" fill="#fff" transform="translate(0)" id="矩形_1519">
            <path stroke="none" d="M 251.1529998779297 154.5619964599609 L 0.4999999403953552 154.5619964599609 L 0.4999999403953552 0.4999982416629791 L 251.1529998779297 0.4999982416629791 L 251.1529998779297 154.5619964599609 Z"></path>
            <path fill="#c5defb" stroke="none" d="M 1 1 L 1 154.0619964599609 L 250.6529998779297 154.0619964599609 L 250.6529998779297 1 L 1 1 M 0 0 L 251.6529998779297 0 L 251.6529998779297 155.0619964599609 L 0 155.0619964599609 L 0 0 Z"></path>
          </g>
          <path style="isolation: isolate" fill="#bed7ff" transform="translate(0 49.668)" d="M125.509,67.676,201.969,0l49.684,105.394H0L58.24,42.463Z" id="路径_1242"></path>
          <path style="isolation: isolate" fill="#bed7ff" transform="translate(94.172 43.324)" d="M0,18.916C0,8.469,8,0,17.868,0S35.736,8.469,35.736,18.916s-8,18.916-17.868,18.916S0,29.364,0,18.916Z" id="椭圆_380"></path>
        </g>
        <g style="isolation: isolate" transform="translate(23.915 237.737)" id="组_6519">
          <path style="isolation: isolate" fill="#bed7ff" d="M0,12.5A12.5,12.5,0,1,1,12.5,25,12.5,12.5,0,0,1,0,12.5Z" id="椭圆_381"></path>
          <path style="isolation: isolate" fill="#bed7ff" transform="translate(38)" d="M201.5,0a12.5,12.5,0,0,1,0,25H12.5a12.5,12.5,0,1,1,0-25Z" id="矩形_1536"></path>
          <path style="isolation: isolate" fill="#bed7ff" transform="translate(0 38)" d="M246.5,0a5.5,5.5,0,0,1,0,11H5.5a5.5,5.5,0,1,1,0-11Z" id="矩形_1537"></path>
          <path style="isolation: isolate" fill="#bed7ff" transform="translate(0 65)" d="M246.5,0a5.5,5.5,0,0,1,0,11H5.5a5.5,5.5,0,1,1,0-11Z" id="矩形_1538"></path>
          <path style="isolation: isolate" fill="#bed7ff" transform="translate(0 89)" d="M246.5,0a5.5,5.5,0,0,1,0,11H5.5a5.5,5.5,0,1,1,0-11Z" id="矩形_1539"></path>
          <path style="isolation: isolate" fill="#bed7ff" transform="translate(0 273)" d="M246.5,0a5.5,5.5,0,0,1,0,11H5.5a5.5,5.5,0,1,1,0-11Z" id="矩形_1545"></path>
          <path style="isolation: isolate" fill="#bed7ff" transform="translate(0 297)" d="M246.5,0a5.5,5.5,0,0,1,0,11H5.5a5.5,5.5,0,1,1,0-11Z" id="矩形_1546"></path>
          <path style="isolation: isolate" fill="#bed7ff" transform="translate(0 116)" d="M109,0a10,10,0,0,1,10,10V56a10,10,0,0,1-10,10H10A10,10,0,0,1,0,56V10A10,10,0,0,1,10,0Z" id="矩形_1540"></path>
          <path style="isolation: isolate" fill="#bed7ff" transform="translate(133 116)" d="M102.5,0a6.5,6.5,0,0,1,0,13H6.5a6.5,6.5,0,1,1,0-13Z" id="矩形_1547"></path>
          <path style="isolation: isolate" fill="#bed7ff" transform="translate(133 142)" d="M102.5,0a6.5,6.5,0,0,1,0,13H6.5a6.5,6.5,0,1,1,0-13Z" id="矩形_1548"></path>
          <path style="isolation: isolate" fill="#bed7ff" transform="translate(133 168)" d="M102.5,0a6.5,6.5,0,0,1,0,13H6.5a6.5,6.5,0,1,1,0-13Z" id="矩形_1549"></path>
          <path style="isolation: isolate" fill="#bed7ff" transform="translate(0 195)" d="M115,0a4,4,0,0,1,4,4V22a4,4,0,0,1-4,4H4a4,4,0,0,1-4-4V4A4,4,0,0,1,4,0Z" id="矩形_1541"></path>
          <path style="isolation: isolate" fill="#bed7ff" transform="translate(0 234)" d="M115,0a4,4,0,0,1,4,4V22a4,4,0,0,1-4,4H4a4,4,0,0,1-4-4V4A4,4,0,0,1,4,0Z" id="矩形_1544"></path>
          <path style="isolation: isolate" fill="#bed7ff" transform="translate(133 195)" d="M115,0a4,4,0,0,1,4,4V22a4,4,0,0,1-4,4H4a4,4,0,0,1-4-4V4A4,4,0,0,1,4,0Z" id="矩形_1542"></path>
          <path style="isolation: isolate" fill="#bed7ff" transform="translate(133 234)" d="M115,0a4,4,0,0,1,4,4V22a4,4,0,0,1-4,4H4a4,4,0,0,1-4-4V4A4,4,0,0,1,4,0Z" id="矩形_1543"></path>
        </g>
      </g>
      <g style="isolation: isolate" transform="translate(144.956 430.356)" id="组_6485">
        <path style="isolation: isolate" fill="#f9b272" transform="translate(35.936 28.426)" d="M0,19.012l12.26-1.244L13.682,0,.709,5.686Z" id="路径_1174"></path>
        <path style="isolation: isolate" fill="#18255a" transform="translate(26.714)" d="M17.391,0C31.783,0,33.732,15.631,33.732,15.631l2.313,22.742H.158S-.2,17.586.158,15.631,3,0,17.391,0Z" id="路径_1175"></path>
        <path style="isolation: isolate" fill="#f9b272" transform="translate(117.235 6.293)" d="M2.239,14.623C3.323,11.5,5.038,5.33,6.825,5.969s-2.232,7.51,1.334,7.445,3.82-4.9,3.441-11.141,4.332,1.906,4.647,6.045.824,9.359-.764,12.861S9.5,30.475,3.962,30.793s-4.2-4.84-2.357-6.939A15.358,15.358,0,0,1,2.239,14.623Z" id="路径_1181"></path>
        <path style="isolation: isolate" fill="#f1ab7a" transform="translate(6.791 122.363)" d="M6.135,34.9c5.377,5.381,6.992-19.041,5.27-21.732A29.607,29.607,0,0,1,7.316,1.447C6.883-2.857,0,3.813,0,3.813S.752,29.527,6.135,34.9Z" id="路径_1187"></path>
        <g style="isolation: isolate" transform="translate(16.742 211.08)" id="组_6470">
          <path style="isolation: isolate" fill="#fca677" transform="translate(0.161)" d="M6.153,22.594C3.683,27.973-1,93.287.188,100.6s7.471,7.414,7.471,7.414S11.1,77.246,15.622,66.6s5.809-30.018,7.1-35.4,3.762-12.8,1.291-21.838S5.4,0,5.4,0,8.63,17.217,6.153,22.594Z" id="路径_1183"></path>
          <path style="isolation: isolate" fill="#2c353a" transform="translate(0 99.646)" d="M0,20.178H3.691V9.041s9.551,7.7,11.586,11.33c0,.063,16.233.129,16.233.191C30.619,17,28.135,11.9,20.629,8.658S9.041.318,8.342.256,0,0,0,0Z" id="路径_1184"></path>
          <path style="isolation: isolate" fill="#fba572" transform="translate(41.497 1.221)" d="M20.59,14.092c-.752,3.228-4.838,75.314-6.019,86.5s-8.826,2.683-8.826,2.683-1.072-35.07-3.869-50.67S-.174,6.775,1.441,4.84,17.254,0,17.254,0,21.348,10.863,20.59,14.092Z" id="路径_1186"></path>
          <path style="isolation: isolate" fill="#2c353a" transform="translate(46.361 99.646)" d="M0,20.178H3.691V9.041s9.551,7.7,11.586,11.33c0,.063,16.233.129,16.233.191C30.619,17,28.135,11.9,20.629,8.658S9.041.318,8.342.256,0,0,0,0Z" id="路径_1185"></path>
        </g>
        <path style="isolation: isolate" fill="#192360" transform="translate(13.248 118.136)" d="M.022,44.434c.545,15.818,2.361,61.453,2.361,61.453S29.655,114.98,66.2,102.43A716.473,716.473,0,0,0,52.384,11.344c-5.814-26.545-43.27,1.82-43.27,1.82S-.524,28.615.022,44.434Z" id="路径_1182"></path>
        <g style="isolation: isolate" transform="translate(0 28.956)" id="组_6469">
          <path style="isolation: isolate" fill="#15155f" transform="translate(29.38 13.332)" d="M21.322,0l.951,5.873L0,6.146,4.234,0Z" id="路径_1176"></path>
          <path style="isolation: isolate" fill="#fff" transform="translate(19.573 97.764)" d="M0,6.479s43.271,1.5,48.982-1.639C47.293-.092,45.416,0,45.416,0L1.883,1.605Z" id="路径_1180"></path>
          <path style="isolation: isolate" fill="#3e62fe" transform="translate(0 3.629)" d="M13.256,25.555C10.387,32.121,0,56.713,0,56.713L5.33,91.154h9.7S12.982,64.5,13.256,63.139s4.508-15.445,6.83-19S25.01,86.367,21.455,95.8c19.952,3.553,46.327,1.092,46.327,1.092s.547-36.9.547-37.307,4.781-8.883,3.963-16.26-3.283-10.25-3.283-10.25L97.165,34.3S122.308,8.748,122.446,8.2,115.474,0,115.474,0L94.292,18.041s-19.539-2.053-37.307-5.059-30.335-.609-33.345.414S16.125,19,13.256,25.555Z" id="路径_1177"></path>
          <path style="isolation: isolate" fill="#111d67" transform="translate(115.188)" d="M3.686,0l8.227,8.041-5.359,4.59L0,3.873Z" id="路径_1178"></path>
          <path style="isolation: isolate" fill="#131957" transform="translate(5.306 94.104)" d="M0,4.492H11.229L9.168,0,0,.664Z" id="路径_1179"></path>
        </g>
      </g>
      <g style="isolation: isolate" transform="translate(420.463 234)" id="组_6521">
        <path style="isolation: isolate" fill="#007dfe" d="M406,0a10,10,0,0,1,10,10V268a10,10,0,0,1-10,10H10A10,10,0,0,1,0,268V10A10,10,0,0,1,10,0Z" id="矩形_1550"></path>
        <path style="isolation: isolate" fill="#fff" transform="translate(15 16)" d="M145,0a10,10,0,0,1,10,10V237a10,10,0,0,1-10,10H10A10,10,0,0,1,0,237V10A10,10,0,0,1,10,0Z" id="矩形_1551"></path>
        <path style="isolation: isolate" fill="#007dfe" transform="translate(45 40)" d="M0,44.5A44.5,44.5,0,1,1,44.5,89,44.5,44.5,0,0,1,0,44.5Z" id="椭圆_382"></path>
        <path style="isolation: isolate" fill="#57a8fc" transform="translate(187 166)" d="M0,44.5A44.5,44.5,0,1,1,44.5,89,44.5,44.5,0,0,1,0,44.5Z" id="椭圆_383"></path>
        <path style="isolation: isolate" fill="#007dfe" transform="translate(28 149)" d="M125,0a4,4,0,0,1,4,4v9a4,4,0,0,1-4,4H4a4,4,0,0,1-4-4V4A4,4,0,0,1,4,0Z" id="矩形_1552"></path>
        <path style="isolation: isolate" fill="#57a8fc" transform="translate(283 170)" d="M108,0a4,4,0,0,1,4,4v9a4,4,0,0,1-4,4H4a4,4,0,0,1-4-4V4A4,4,0,0,1,4,0Z" id="矩形_1562"></path>
        <path style="isolation: isolate" fill="#57a8fc" transform="translate(283 204)" d="M108,0a4,4,0,0,1,4,4v9a4,4,0,0,1-4,4H4a4,4,0,0,1-4-4V4A4,4,0,0,1,4,0Z" id="矩形_1563"></path>
        <path style="isolation: isolate" fill="#57a8fc" transform="translate(283 238)" d="M108,0a4,4,0,0,1,4,4v9a4,4,0,0,1-4,4H4a4,4,0,0,1-4-4V4A4,4,0,0,1,4,0Z" id="矩形_1564"></path>
        <g style="isolation: isolate" transform="translate(187 16)" id="组_6522">
          <path style="isolation: isolate" fill="#fff" d="M206,0a10,10,0,0,1,10,10V114a10,10,0,0,1-10,10H10A10,10,0,0,1,0,114V10A10,10,0,0,1,10,0Z" id="矩形_1555"></path>
          <path style="isolation: isolate" fill="#91c4f8" transform="translate(18 57)" d="M14,0a4,4,0,0,1,4,4V52a4,4,0,0,1-4,4H4a4,4,0,0,1-4-4V4A4,4,0,0,1,4,0Z" id="矩形_1556"></path>
          <path style="isolation: isolate" fill="#91c4f8" transform="translate(52 77)" d="M14,0a4,4,0,0,1,4,4V32a4,4,0,0,1-4,4H4a4,4,0,0,1-4-4V4A4,4,0,0,1,4,0Z" id="矩形_1557"></path>
          <path style="isolation: isolate" fill="#91c4f8" transform="translate(86 16)" d="M14,0a4,4,0,0,1,4,4V93a4,4,0,0,1-4,4H4a4,4,0,0,1-4-4V4A4,4,0,0,1,4,0Z" id="矩形_1558"></path>
          <path style="isolation: isolate" fill="#91c4f8" transform="translate(120 39)" d="M14,0a4,4,0,0,1,4,4V70a4,4,0,0,1-4,4H4a4,4,0,0,1-4-4V4A4,4,0,0,1,4,0Z" id="矩形_1559"></path>
          <path style="isolation: isolate" fill="#91c4f8" transform="translate(151 64)" d="M14,0a4,4,0,0,1,4,4V45a4,4,0,0,1-4,4H4a4,4,0,0,1-4-4V4A4,4,0,0,1,4,0Z" id="矩形_1560"></path>
          <path style="isolation: isolate" fill="#91c4f8" transform="translate(185 53)" d="M14,0a4,4,0,0,1,4,4V56a4,4,0,0,1-4,4H4a4,4,0,0,1-4-4V4A4,4,0,0,1,4,0Z" id="矩形_1561"></path>
        </g>
        <path style="isolation: isolate" fill="#007dfe" transform="translate(28 185)" d="M125,0a4,4,0,0,1,4,4v9a4,4,0,0,1-4,4H4a4,4,0,0,1-4-4V4A4,4,0,0,1,4,0Z" id="矩形_1553"></path>
        <path style="isolation: isolate" fill="#007dfe" transform="translate(28 222)" d="M125,0a4,4,0,0,1,4,4v9a4,4,0,0,1-4,4H4a4,4,0,0,1-4-4V4A4,4,0,0,1,4,0Z" id="矩形_1554"></path>
      </g>
      <g style="isolation: isolate" transform="translate(390.463 596)" id="组_6523">
        <path style="isolation: isolate" fill="#9fccf9" d="M206,0a10,10,0,0,1,10,10V114a10,10,0,0,1-10,10H10A10,10,0,0,1,0,114V10A10,10,0,0,1,10,0Z" id="矩形_1555-2"></path>
        <path style="isolation: isolate" fill="#fff" transform="translate(18 57)" d="M14,0a4,4,0,0,1,4,4V52a4,4,0,0,1-4,4H4a4,4,0,0,1-4-4V4A4,4,0,0,1,4,0Z" id="矩形_1556-2"></path>
        <path style="isolation: isolate" fill="#fff" transform="translate(52 77)" d="M14,0a4,4,0,0,1,4,4V32a4,4,0,0,1-4,4H4a4,4,0,0,1-4-4V4A4,4,0,0,1,4,0Z" id="矩形_1557-2"></path>
        <path style="isolation: isolate" fill="#fff" transform="translate(86 16)" d="M14,0a4,4,0,0,1,4,4V93a4,4,0,0,1-4,4H4a4,4,0,0,1-4-4V4A4,4,0,0,1,4,0Z" id="矩形_1558-2"></path>
        <path style="isolation: isolate" fill="#fff" transform="translate(120 39)" d="M14,0a4,4,0,0,1,4,4V70a4,4,0,0,1-4,4H4a4,4,0,0,1-4-4V4A4,4,0,0,1,4,0Z" id="矩形_1559-2"></path>
        <path style="isolation: isolate" fill="#fff" transform="translate(151 64)" d="M14,0a4,4,0,0,1,4,4V45a4,4,0,0,1-4,4H4a4,4,0,0,1-4-4V4A4,4,0,0,1,4,0Z" id="矩形_1560-2"></path>
        <path style="isolation: isolate" fill="#fff" transform="translate(185 53)" d="M14,0a4,4,0,0,1,4,4V56a4,4,0,0,1-4,4H4a4,4,0,0,1-4-4V4A4,4,0,0,1,4,0Z" id="矩形_1561-2"></path>
      </g>
      <g style="isolation: isolate" transform="translate(562.463 524)" id="组_6524">
        <path style="isolation: isolate" fill="#007dfe" d="M206,0a10,10,0,0,1,10,10V144a10,10,0,0,1-10,10H10A10,10,0,0,1,0,144V10A10,10,0,0,1,10,0Z" id="矩形_1555-3"></path>
        <g style="isolation: isolate" transform="translate(11.223 13.263)" id="组_6525">
          <path style="isolation: isolate" fill="none" d="M0,0H194.589V128.8H0Z" id="矩形_1519-2"></path>
          <path style="isolation: isolate" fill="#bed7ff" transform="translate(0 41.255)" d="M97.049,56.213,156.171,0l38.418,87.542H0L45.034,35.27Z" id="路径_1242-2"></path>
          <path style="isolation: isolate" fill="#bed7ff" transform="translate(72.818 35.985)" d="M0,15.712C0,7.035,6.186,0,13.816,0S27.633,7.035,27.633,15.712,21.447,31.424,13.816,31.424,0,24.39,0,15.712Z" id="椭圆_380-2"></path>
        </g>
      </g>
    </g>
  </g>
</svg>
